<svg xmlns="http://www.w3.org/2000/svg" fill="#1C7CBA" viewBox="0 0 100 100"><path d="M11.512 21.594h68.352c-.719 3.648-1.422 7.21-2.133 10.824H9.341c-1.106 5.61-2.204 11.164-3.317 16.82h68.352c-1.258 6.293-2.492 12.492-3.754 18.684-.047.23-.34.508-.578.586a7860.361 7860.361 0 01-26.523 8.789c-.293.098-.68.098-.965-.012-7.637-2.898-15.27-5.82-22.902-8.722-.402-.153-.504-.34-.414-.75.242-1.094.445-2.192.66-3.29.29-1.464.57-2.933.856-4.394-.141-.039-.192-.062-.243-.062-5.34-.004-10.68 0-16.02-.02-.52 0-.566.281-.64.668-.653 3.32-1.32 6.637-1.977 9.953-.629 3.156-1.246 6.316-1.875 9.5.227.102.41.195.602.27 12.78 4.894 25.562 9.785 38.352 14.66.328.125.773.117 1.11.007 14.77-4.886 29.534-9.793 44.304-14.68.461-.152.676-.37.766-.832 1.453-7.351 2.914-14.699 4.379-22.05 3.21-16.13 6.425-32.259 9.64-48.384.285-1.437.563-2.879.848-4.347H14.869c-1.113 5.57-2.219 11.102-3.356 16.78z"/><path d="M11.512 21.594c1.137-5.68 2.242-11.211 3.356-16.781H100c-.285 1.465-.562 2.906-.847 4.348-3.211 16.129-6.426 32.258-9.64 48.383-1.466 7.347-2.927 14.699-4.38 22.05-.09.462-.304.68-.765.833-14.77 4.886-29.535 9.793-44.305 14.68-.336.11-.782.117-1.11-.008-12.789-4.875-25.57-9.766-38.352-14.66-.191-.074-.375-.164-.601-.27.629-3.183 1.246-6.347 1.87-9.507.657-3.317 1.329-6.633 1.977-9.954.075-.386.122-.671.641-.667 5.34.019 10.68.015 16.02.019.05 0 .098.023.242.063-.285 1.46-.566 2.93-.855 4.394-.215 1.098-.418 2.2-.66 3.29-.09.41.011.597.414.75 7.636 2.901 15.266 5.823 22.902 8.722.285.11.672.11.965.012 8.847-2.915 17.688-5.84 26.523-8.79.238-.078.53-.355.578-.585 1.261-6.196 2.496-12.395 3.754-18.684H6.019c1.117-5.657 2.21-11.211 3.316-16.82h68.391c.71-3.614 1.414-7.176 2.133-10.824-22.785.007-45.512.007-68.348.007z"/></svg>