<svg xmlns:dc="http://purl.org/dc/elements/1.1/" xmlns:cc="http://creativecommons.org/ns#" xmlns:rdf="http://www.w3.org/1999/02/22-rdf-syntax-ns#" xmlns:svg="http://www.w3.org/2000/svg" xmlns="http://www.w3.org/2000/svg" version="1.1" width="495.397" height="355.30939" viewBox="0 0 495.397 355.30939" id="svg2" xml:space="preserve"><metadata id="metadata77"><rdf:RDF><cc:Work rdf:about=""><dc:format>image/svg+xml</dc:format><dc:type rdf:resource="http://purl.org/dc/dcmitype/StillImage"/><dc:title/></cc:Work></rdf:RDF></metadata><defs id="defs75"/>
<g transform="translate(-90.963008,-3.8509999)" id="svg1">
	<defs id="defs5">
		
		
			
	</defs>
	
		
	
		<path d="m 380.95,326.775 c 0,0 35.707,-13.395 95.981,-15.937 66.354,-2.798 95.429,-3.116 95.429,-3.116 L 572.038,101.91 c 0,0 -66.828,-10.163 -113.218,-7.5 -46.39,2.663 -106.481,20.113 -106.481,20.113 0,0 -72.858,-13.141 -112.136,-16.991 -39.278,-3.85 -135.24,-7.254 -135.24,-7.254 l 15.666,217.444 c 0,0 56.837,-4.67 101.01,0.667 44.173,5.337 85.778,17.007 85.778,17.007 l 73.533,1.379 z" id="path1062_1_" style="fill:#760303;stroke:#000000;stroke-width:8;stroke-miterlimit:10"/>
	
		<path d="m 346.861,129.466 c 0,0 -65.979,-4.932 -106.69,-16.771 -40.711,-11.839 -117.557,-5.87 -117.557,-5.87 0,0 10.449,41.43 12.349,88.879 2.103,52.508 1.73,94.724 1.73,94.724 60.188,-8.887 155.737,4.605 193.333,18.033 l 35.333,-0.739 c 90.223,-27.94 117.333,-21.294 190.733,-12.697 0,0 -7.508,-45.811 -7.151,-90.883 0.356,-45.072 23.097,-102.232 23.097,-102.232 0,0 -73.624,4.952 -117.575,9.187 -43.951,4.235 -107.602,18.369 -107.602,18.369 z" id="path2931_2_" style="fill:#f2e37d;stroke:#231f20;stroke-width:4;stroke-miterlimit:10"/>
	
		<path d="m 527.361,271.769 c -87.229,-11.344 -117.102,-3.67 -185.114,43.069 -33.227,-35.337 -105.852,-42.733 -178.886,-43.069 -0.302,-68.496 15.88,-118.627 -20,-186.605 80.318,-6.899 163.878,-22.567 207.979,33.359 74.652,-68.492 124.873,-33.914 201.021,-42.762 -2.54,39.607 -31.406,124.066 -25,196.008 z" id="path7907_5_" style="fill:#79903f"/>
	
		<path d="M 538.361,255.761 C 436.832,253.995 410.527,256.606 343.247,310.838 310.02,275.501 231.395,261.097 158.361,260.761 158.059,192.265 158.493,124.78 122.613,56.803 202.931,49.904 308.238,58.597 352.339,114.524 426.991,46.032 492.212,65.652 568.36,56.803 565.821,96.41 531.955,183.82 538.361,255.761 z" id="path7907_4_" style="fill:#bec780;stroke:#231f20;stroke-width:4;stroke-miterlimit:10"/>
	
		<path d="m 502.446,245.339 c -101.529,-1.766 -106.495,0 -156.5,63.122 -33.227,-35.337 -89.95,-60.634 -162.984,-60.97 -0.302,-68.496 17.999,-106.928 3,-176.636 67.497,43.783 108.477,-25.995 159.758,46.035 74.653,-68.492 107.711,-58.369 184.208,-89.688 7.753,41.553 -33.889,146.195 -27.482,218.137 z" id="path7907_1_" style="fill:#79903f"/>
	
		<path d="m 523.443,234.335 c -101.529,-1.766 -136.184,0.739 -177.497,74.126 -33.227,-35.337 -94.452,-73.79 -167.485,-74.126 -0.302,-68.496 -12,-148.277 -26.999,-217.984 67.497,43.783 148.493,18.729 199.774,90.759 74.652,-68.492 107.711,-58.369 184.207,-89.688 7.755,41.552 -18.406,144.971 -12,216.913 z" id="path7907_3_" style="fill:#e5efbc;stroke:#231f20;stroke-width:5;stroke-miterlimit:10"/>
	<g id="g15">
		<g id="g17">
			<path d="m 350.169,115.121 c 1.037,6.955 -0.732,14.444 -1.866,21.28 -1.178,7.097 -2.655,14.316 -2.579,21.54 0.084,8.02 1.781,16.276 2.817,24.231 0.825,6.327 1.486,12.659 1.924,19.025 1.117,16.27 -0.74,31.448 -3.457,47.485 -2.521,14.889 -5.904,29.946 -6.5,45.078 -0.114,2.903 4.386,2.892 4.5,0 0.617,-15.68 4.225,-31.288 6.818,-46.723 1.288,-7.669 2.487,-15.36 3.285,-23.098 0.831,-8.046 0.314,-16.011 -0.238,-24.063 -0.981,-14.286 -4.51,-28.623 -4.661,-42.92 -0.151,-14.362 6.44,-28.642 4.296,-43.032 -0.426,-2.861 -4.762,-1.64 -4.339,1.197 l 0,0 z" id="path19"/>
		</g>
	</g>
	
		<path d="m 342.898,308.477 c 51.865,-2.139 47.515,35.449 -0.139,36.664 -16.323,0.416 -35.805,-5.902 -36.308,-15.213 -0.503,-9.311 15.498,-20.587 36.447,-21.451 z" id="path7907_2_" style="fill:#300000;stroke:#000000;stroke-width:8;stroke-miterlimit:10"/>
</g>
<g transform="translate(-90.963008,-3.8509999)" id="Layer_4">
	<path d="m 231.065,238.018 c 3.894,-3.863 20.031,-118.143 24.501,-128.155 4.47,-10.012 12.237,-31.556 19.964,0 7.727,31.556 12.377,150.32 12.377,150.32 0,0 -24.138,-11.411 -32.086,-14.511 -7.948,-3.1 -24.756,-7.654 -24.756,-7.654 z" id="path23" style="fill:#ffffff"/>
	<path d="m 398.292,73.372 c 2.481,-1.413 17.633,110.102 24.895,98.792 7.262,-11.311 12.125,-63.163 14.574,-84.256 2.449,-21.093 4.549,-36.627 4.549,-36.627 0,0 -32.179,14.15 -25.276,10.686 6.903,-3.464 -18.742,11.405 -18.742,11.405 z" id="path25" style="fill:#ffffff"/>
	<path d="m 351.236,109.873 c 0.622,-0.569 24.498,-20.899 24.498,-20.899 0,0 1.325,9.875 -3.556,23.052 -4.881,13.177 -6.952,20.375 -8.611,32.767 -1.659,12.392 0.222,51.919 0,60.184 -0.222,8.265 0.581,14.733 0,21.561 -0.581,6.828 -17.971,65.76 -18.08,67.196 -0.036,0.478 -0.989,-5.17 0,-13.222 1.982,-16.128 7.312,-43.497 8.126,-49.773 3.313,-25.552 -4.221,-67.713 -3.502,-77.495 0.719,-9.782 3.532,-30.444 4.25,-35.116 0.718,-4.672 -3.125,-8.255 -3.125,-8.255 z" id="path27" style="fill:#90904f"/>
</g>
<g transform="translate(-90.963008,-3.8509999)" id="Layer_3">
	<g id="g30">
		<path d="m 382.861,126.761 v 2 c 7.612,-6.175 11.322,-11.258 18.98,-17.372 8.146,-6.503 17.369,-10.14 27.477,-12.316 21.423,-4.614 43.952,-5.814 63.013,-17.73 1.365,-0.853 -2.024,-7.188 -0.773,-7.97 -18.526,11.582 -40.558,13.244 -61.486,17.414 -10.266,2.045 -19.442,5.519 -27.897,11.78 l -14.425,14.519 -4.889,9.675 z" id="path32" style="fill:#231f20"/>
	</g>
	<g id="g34">
		<path d="m 386.47,164.19 c 15.372,-8.439 29.334,-18.088 45.891,-24.375 8.253,-3.134 19.793,-6.405 28.497,-5.99 9.28,0.442 14.094,-0.8 21.16,-7.421 0.609,-0.572 4.276,-6.535 4.276,-6.535 0,0 -14.472,7.343 -23.288,7.043 -9.358,-0.318 -20.99,2.774 -29.943,5.927 -16.62,5.854 -30.62,15.991 -45.892,24.375 -1.637,0.899 -0.701,6.976 -0.701,6.976 z" id="path36" style="fill:#231f20"/>
	</g>
	<g id="g38">
		<path d="m 385.067,200.882 c 12.727,-12.404 30.644,-21.66 47.435,-25.936 17.699,-4.508 35.996,-7.36 53.061,-14.062 -0.126,0.049 3.03,-6.163 2.764,-6.059 -17.05,6.697 -35.355,9.627 -53.06,14.062 -16.779,4.203 -34.74,9.562 -47.436,21.936 -0.837,0.815 -2.764,10.059 -2.764,10.059 z" id="path40" style="fill:#231f20"/>
	</g>
	<g id="g42">
		<path d="m 386.687,233.519 c 6.972,0.818 14.402,-3.62 20.377,-6.631 7.588,-3.823 14.94,-8.151 23.016,-10.894 18.959,-6.437 40.555,-3.068 58.603,-12.474 2.618,-1.364 1.971,-5.006 4.523,-6.336 -17.444,9.091 -38.538,6.666 -57.126,12.013 -8.207,2.36 -15.693,6.822 -23.234,10.712 -6.269,3.233 -14.271,8.137 -21.635,7.273 -1.561,-0.183 -4.524,6.337 -4.524,6.337 z" id="path44" style="fill:#231f20"/>
	</g>
	<g id="g46">
		<path d="M 331.286,107.322 C 315.051,108.2 296.45,89.37 281.594,85.374 c 0.381,0.103 0.658,16.777 0.779,18.241 0.441,5.349 1.049,10.683 1.618,16.019 1.074,10.085 3.734,16.801 3.143,26.949 -0.013,0.217 0.285,2.495 1.722,3.703 1.7,1.429 19.563,5.109 27.694,7.386 4.072,1.14 8.151,2.14 12.345,2.714 1.35,0.624 1.804,0.325 1.365,-0.894 -0.085,-1.085 -0.171,-2.17 -0.256,-3.254 -0.15,-1.909 -0.288,-3.817 -0.416,-5.728 -0.961,-14.42 0.795,-33.366 1.652,-44.207 0,0 -5.111,3.8 -6.803,14.079 -1.695,10.294 0.682,34.088 0.682,34.088 0,0 -25.244,-6.935 -18.678,-4.879 6.566,2.056 -14.176,-5.408 -14.176,-5.408 0,0 -2.871,-16.438 -3.701,-24.314 -0.83,-7.876 -1.412,-24.187 -1.412,-24.187 0,0 29.253,15.108 35.026,14.505 5.518,-0.576 9.108,-2.865 9.108,-2.865 z" id="path48" style="fill:#231f20"/>
	</g>
	<g id="g50">
		<path d="m 194.426,87.071 c 19.119,-8.253 48.482,9.313 67.998,6.947 1.296,-0.157 1.407,-6.525 2.564,-6.666 -19.516,2.366 -48.879,-15.2 -67.998,-6.947 -1.946,0.84 -2.564,6.666 -2.564,6.666 z" id="path52" style="fill:#231f20"/>
	</g>
	<g id="g54">
		<path d="m 194.426,120.868 c 20.092,-8.026 45.05,6.222 65.277,0.979 0.906,-0.235 2.514,-0.267 3.041,-0.97 0.483,-0.644 4.162,-4.822 4.961,-5.029 -20.227,5.243 -47.185,-8.004 -67.277,0.022 -2.679,1.07 -6.002,4.998 -6.002,4.998 z" id="path56" style="fill:#231f20"/>
	</g>
	<g id="g58">
		<path d="m 208.656,182.995 c 20.503,0.135 46.883,3.19 60.548,7.11 13.665,3.92 43.462,16.536 52.42,18.421 1.299,0.273 3.966,-4.63 5.128,-4.385 -8.812,-1.855 -37.169,-15.177 -51.947,-19.319 -14.778,-4.144 -45.616,-7.334 -66.149,-7.469 -1.911,-0.012 0,5.642 0,5.642 z" id="path60" style="fill:#231f20"/>
	</g>
	<g id="g62">
		<path d="m 215.917,210.882 c 23.448,6.083 47.646,7.169 70.823,14.578 7.335,2.345 14.723,6.041 21.418,9.984 3.262,1.922 6.453,3.635 9.41,6.039 3.338,2.715 6.484,4.223 10.844,4.396 -2.017,-0.08 -3.785,-7.974 -5.92,-8.059 -3.925,-0.157 -16.703,-8.23 -20.253,-10.437 -6.542,-4.063 -14.149,-5.719 -21.418,-7.984 -11.62,-3.621 -23.165,-6.256 -35.2,-8.107 -11.945,-1.838 -23.905,-3.431 -35.623,-6.47 0.785,0.203 2.451,3.421 2.919,4.059 0.511,0.697 3,2.001 3,2.001 z" id="path64" style="fill:#231f20"/>
	</g>
	<path d="M 385.687,119.869" id="path66" style="fill:#231f20"/>
	<g id="g68">
		<path d="m 199.357,152.838 c 18.107,-10.284 49.207,3.983 68.35,-0.492 1.271,-0.297 0.363,-7.622 1.498,-7.888 -19.142,4.476 -50.242,-9.792 -68.35,0.492 -1.844,1.048 -1.498,7.888 -1.498,7.888 z" id="path70" style="fill:#231f20"/>
	</g>
</g>
<g transform="translate(-90.963008,-3.8509999)" id="Layer_2">
</g>
</svg>