<svg width="20" height="19" viewBox="0 0 20 19" fill="none" xmlns="http://www.w3.org/2000/svg">
<g filter="url(#filter0_d)">
<path d="M18.0062 0H1.99375C1.44475 0 1 0.44475 1 0.99375V17.007C1 17.5553 1.44475 18 1.99375 18H10.615V11.0295H8.269V8.313H10.615V6.30975C10.615 3.98475 12.0348 2.71875 14.1093 2.71875C15.103 2.71875 15.9565 2.793 16.2055 2.826V5.256L14.767 5.25675C13.639 5.25675 13.4208 5.793 13.4208 6.579V8.31375H16.111L15.7607 11.0302H13.4208V18H18.0078C18.5553 18 19 17.5552 19 17.0062V0.99375C19 0.44475 18.5552 0 18.0062 0V0Z" fill="#757E9A"/>
</g>
<defs>
<filter id="filter0_d" x="0.5" y="0" width="19" height="19" filterUnits="userSpaceOnUse" color-interpolation-filters="sRGB">
<feFlood flood-opacity="0" result="BackgroundImageFix"/>
<feColorMatrix in="SourceAlpha" type="matrix" values="0 0 0 0 0 0 0 0 0 0 0 0 0 0 0 0 0 0 127 0"/>
<feOffset dy="0.5"/>
<feGaussianBlur stdDeviation="0.25"/>
<feColorMatrix type="matrix" values="0 0 0 0 0 0 0 0 0 0 0 0 0 0 0 0 0 0 0.25 0"/>
<feBlend mode="normal" in2="BackgroundImageFix" result="effect1_dropShadow"/>
<feBlend mode="normal" in="SourceGraphic" in2="effect1_dropShadow" result="shape"/>
</filter>
</defs>
</svg>
