<svg width="20" height="20" viewBox="0 0 20 20" fill="none" xmlns="http://www.w3.org/2000/svg">
<path d="M10 0C4.47833 0 0 4.59069 0 10.2528C0 14.7828 2.865 18.6259 6.83917 19.9819C7.33833 20.0767 7.5 19.7589 7.5 19.4889V17.5801C4.71833 18.2004 4.13917 16.3703 4.13917 16.3703C3.68417 15.1853 3.02833 14.87 3.02833 14.87C2.12083 14.2335 3.0975 14.2471 3.0975 14.2471C4.10167 14.3189 4.63 15.304 4.63 15.304C5.52167 16.871 6.96917 16.4182 7.54 16.1559C7.62917 15.4937 7.88833 15.0409 8.175 14.7854C5.95417 14.5248 3.61917 13.6456 3.61917 9.71795C3.61917 8.59783 4.01 7.68362 4.64917 6.96593C4.54583 6.70704 4.20333 5.66382 4.74667 4.25235C4.74667 4.25235 5.58667 3.97723 7.4975 5.30326C8.295 5.07599 9.15 4.96236 10 4.95808C10.85 4.96236 11.7058 5.07599 12.505 5.30326C14.4142 3.97723 15.2525 4.25235 15.2525 4.25235C15.7967 5.66467 15.4542 6.7079 15.3508 6.96593C15.9925 7.68362 16.38 8.59868 16.38 9.71795C16.38 13.6559 14.0408 14.5231 11.8142 14.7769C12.1725 15.0947 12.5 15.7184 12.5 16.6753V19.4889C12.5 19.7614 12.66 20.0818 13.1675 19.981C17.1383 18.6234 20 14.7811 20 10.2528C20 4.59069 15.5225 0 10 0Z" fill="#757E9A"/>
</svg>
