<svg xmlns="http://www.w3.org/2000/svg" width="22" height="21" fill="none" viewBox="0 0 22 21"><g filter="url(#filter0_d)"><path fill="#757E9A" d="M11 0C5.47833 0 1 4.59069 1 10.2528C1 14.7828 3.865 18.6259 7.83917 19.9819C8.33833 20.0767 8.5 19.7589 8.5 19.4889V17.5801C5.71833 18.2004 5.13917 16.3703 5.13917 16.3703C4.68417 15.1853 4.02833 14.87 4.02833 14.87C3.12083 14.2335 4.0975 14.2471 4.0975 14.2471C5.10167 14.3189 5.63 15.304 5.63 15.304C6.52167 16.871 7.96917 16.4182 8.54 16.1559C8.62917 15.4937 8.88833 15.0409 9.175 14.7854C6.95417 14.5248 4.61917 13.6456 4.61917 9.71795C4.61917 8.59783 5.01 7.68362 5.64917 6.96593C5.54583 6.70704 5.20333 5.66382 5.74667 4.25235C5.74667 4.25235 6.58667 3.97723 8.4975 5.30326C9.295 5.07599 10.15 4.96236 11 4.95808C11.85 4.96236 12.7058 5.07599 13.505 5.30326C15.4142 3.97723 16.2525 4.25235 16.2525 4.25235C16.7967 5.66467 16.4542 6.7079 16.3508 6.96593C16.9925 7.68362 17.38 8.59868 17.38 9.71795C17.38 13.6559 15.0408 14.5231 12.8142 14.7769C13.1725 15.0947 13.5 15.7184 13.5 16.6753V19.4889C13.5 19.7614 13.66 20.0818 14.1675 19.981C18.1383 18.6234 21 14.7811 21 10.2528C21 4.59069 16.5225 0 11 0Z"/></g><defs><filter id="filter0_d" width="21" height="21" x=".5" y="0" color-interpolation-filters="sRGB" filterUnits="userSpaceOnUse"><feFlood flood-opacity="0" result="BackgroundImageFix"/><feColorMatrix in="SourceAlpha" type="matrix" values="0 0 0 0 0 0 0 0 0 0 0 0 0 0 0 0 0 0 127 0"/><feOffset dy=".5"/><feGaussianBlur stdDeviation=".25"/><feColorMatrix type="matrix" values="0 0 0 0 0 0 0 0 0 0 0 0 0 0 0 0 0 0 0.25 0"/><feBlend in2="BackgroundImageFix" mode="normal" result="effect1_dropShadow"/><feBlend in="SourceGraphic" in2="effect1_dropShadow" mode="normal" result="shape"/></filter></defs></svg>