<svg width="22" height="21" viewBox="0 0 22 21" fill="none" xmlns="http://www.w3.org/2000/svg">
<g filter="url(#filter0_d)">
<path d="M11 1.8025C13.67 1.8025 13.9867 1.8125 15.0417 1.86083C17.7517 1.98417 19.0175 3.27 19.1408 5.96C19.1892 7.01417 19.1983 7.33083 19.1983 10.0008C19.1983 12.6717 19.1883 12.9875 19.1408 14.0417C19.0167 16.7292 17.7542 18.0175 15.0417 18.1408C13.9867 18.1892 13.6717 18.1992 11 18.1992C8.33 18.1992 8.01333 18.1892 6.95917 18.1408C4.2425 18.0167 2.98333 16.725 2.86 14.0408C2.81167 12.9867 2.80167 12.6708 2.80167 10C2.80167 7.33 2.8125 7.01417 2.86 5.95917C2.98417 3.27 4.24667 1.98333 6.95917 1.86C8.01417 1.8125 8.33 1.8025 11 1.8025ZM11 0C8.28417 0 7.94417 0.0116667 6.8775 0.06C3.24583 0.226667 1.2275 2.24167 1.06083 5.87667C1.01167 6.94417 1 7.28417 1 10C1 12.7158 1.01167 13.0567 1.06 14.1233C1.22667 17.755 3.24167 19.7733 6.87667 19.94C7.94417 19.9883 8.28417 20 11 20C13.7158 20 14.0567 19.9883 15.1233 19.94C18.7517 19.7733 20.775 17.7583 20.9392 14.1233C20.9883 13.0567 21 12.7158 21 10C21 7.28417 20.9883 6.94417 20.94 5.8775C20.7767 2.24917 18.7592 0.2275 15.1242 0.0608333C14.0567 0.0116667 13.7158 0 11 0V0ZM11 4.865C8.16417 4.865 5.865 7.16417 5.865 10C5.865 12.8358 8.16417 15.1358 11 15.1358C13.8358 15.1358 16.135 12.8367 16.135 10C16.135 7.16417 13.8358 4.865 11 4.865ZM11 13.3333C9.15917 13.3333 7.66667 11.8417 7.66667 10C7.66667 8.15917 9.15917 6.66667 11 6.66667C12.8408 6.66667 14.3333 8.15917 14.3333 10C14.3333 11.8417 12.8408 13.3333 11 13.3333ZM16.3383 3.4625C15.675 3.4625 15.1375 4 15.1375 4.6625C15.1375 5.325 15.675 5.8625 16.3383 5.8625C17.0008 5.8625 17.5375 5.325 17.5375 4.6625C17.5375 4 17.0008 3.4625 16.3383 3.4625Z" fill="#757E9A"/>
</g>
<defs>
<filter id="filter0_d" x="0.5" y="0" width="21" height="21" filterUnits="userSpaceOnUse" color-interpolation-filters="sRGB">
<feFlood flood-opacity="0" result="BackgroundImageFix"/>
<feColorMatrix in="SourceAlpha" type="matrix" values="0 0 0 0 0 0 0 0 0 0 0 0 0 0 0 0 0 0 127 0"/>
<feOffset dy="0.5"/>
<feGaussianBlur stdDeviation="0.25"/>
<feColorMatrix type="matrix" values="0 0 0 0 0 0 0 0 0 0 0 0 0 0 0 0 0 0 0.25 0"/>
<feBlend mode="normal" in2="BackgroundImageFix" result="effect1_dropShadow"/>
<feBlend mode="normal" in="SourceGraphic" in2="effect1_dropShadow" result="shape"/>
</filter>
</defs>
</svg>
