<svg width="100" height="100" viewBox="0 0 100 100" fill="none" xmlns="http://www.w3.org/2000/svg">
<g clip-path="url(#clip0_819:467)">
<path d="M100.125 20.875C96.4297 22.5156 92.4687 23.6172 88.3047 24.1172C92.5547 21.5703 95.8203 17.5391 97.3516 12.7422C93.3828 15.0937 88.9688 16.8047 84.2891 17.7266C80.5391 13.7266 75.1953 11.2344 69.2812 11.2344C57.9219 11.2344 48.7109 20.4375 48.7109 31.7969C48.7109 33.4062 48.8984 34.9766 49.25 36.4844C32.1562 35.625 17.0078 27.4375 6.85938 14.9922C5.08594 18.0391 4.07813 21.5703 4.07813 25.3359C4.07813 32.4687 7.70313 38.7656 13.2266 42.4609C9.85156 42.3516 6.67969 41.4219 3.90625 39.8828C3.90625 39.9688 3.90625 40.0547 3.90625 40.1406C3.90625 50.1094 11 58.4141 20.3984 60.3125C18.6797 60.7812 16.8594 61.0312 14.9844 61.0312C13.6562 61.0312 12.3672 60.9062 11.1094 60.6562C13.7344 68.8203 21.3281 74.7813 30.3203 74.9453C23.2891 80.4609 14.4219 83.7422 4.78125 83.7422C3.11719 83.7422 1.48438 83.6484 -0.117188 83.4531C8.97656 89.2969 19.7891 92.6953 31.4062 92.6953C69.2344 92.6953 89.9219 61.3594 89.9219 34.1875C89.9219 33.2969 89.8984 32.3984 89.8672 31.5234C93.8828 28.625 97.3672 25 100.125 20.875Z" fill="#757E9A"/>
</g>
<defs>
<clipPath id="clip0_819:467">
<rect width="100" height="100" fill="white"/>
</clipPath>
</defs>
</svg>
